<?xml version="1.0" encoding="UTF-8"?>
<!DOCTYPE svg PUBLIC "-//W3C//DTD SVG 1.1//EN" "http://www.w3.org/Graphics/SVG/1.1/DTD/svg11.dtd">
<svg xmlns="http://www.w3.org/2000/svg" version="1.1" width="3061px" height="3061px" style="shape-rendering:geometricPrecision; text-rendering:geometricPrecision; image-rendering:optimizeQuality; fill-rule:evenodd; clip-rule:evenodd" xmlns:xlink="http://www.w3.org/1999/xlink">
<g><path style="opacity:0.999" fill="#fcfcfb" d="M 1098.5,943.5 C 1203.12,939.409 1291.62,974.743 1364,1049.5C 1381.97,1071.89 1384.31,1095.89 1371,1121.5C 1356.19,1142.48 1336.03,1151.32 1310.5,1148C 1299.13,1145.65 1289.13,1140.65 1280.5,1133C 1231.89,1080.22 1171.55,1056.55 1099.5,1062C 1058.21,1066.82 1021.21,1081.82 988.5,1107C 976.818,1116.68 965.818,1127.02 955.5,1138C 929.323,1154.1 904.323,1152.44 880.5,1133C 860.597,1111.29 857.097,1087.13 870,1060.5C 913.358,1008.55 967.858,973.383 1033.5,955C 1055.04,949.633 1076.71,945.8 1098.5,943.5 Z"/></g>
<g><path style="opacity:0.99" fill="#fdfdfd" d="M 2271.5,1831.5 C 2262.98,1831.66 2254.64,1832.32 2246.5,1833.5C 2235.17,1834.83 2223.83,1834.83 2212.5,1833.5C 2204.36,1832.32 2196.02,1831.66 2187.5,1831.5C 2087.47,1820.96 2022.97,1767.63 1994,1671.5C 1990.36,1656.67 1987.7,1641.67 1986,1626.5C 1983.06,1564.86 1982.73,1503.19 1985,1441.5C 1987,1402.52 1997.66,1366.19 2017,1332.5C 2017.11,1341.89 2017.78,1351.23 2019,1360.5C 2021.75,1366.92 2026.25,1371.75 2032.5,1375C 2065.79,1376.31 2099.12,1376.97 2132.5,1377C 2143.75,1378.29 2153.41,1382.79 2161.5,1390.5C 2163.58,1386.66 2165.92,1383 2168.5,1379.5C 2163.13,1373.09 2159.63,1365.76 2158,1357.5C 2156.75,1323.52 2156.08,1289.52 2156,1255.5C 2153.05,1247.38 2147.55,1241.72 2139.5,1238.5C 2143.23,1236.4 2147.23,1234.9 2151.5,1234C 2208.51,1221.55 2265.18,1222.89 2321.5,1238C 2393.53,1260.7 2440.86,1308.03 2463.5,1380C 2463.17,1380.5 2462.83,1381 2462.5,1381.5C 2429.54,1380.67 2396.54,1380.17 2363.5,1380C 2356.34,1378.5 2349.68,1375.84 2343.5,1372C 2331.45,1361.07 2319.95,1349.57 2309,1337.5C 2304.63,1331.1 2301.63,1324.1 2300,1316.5C 2299.95,1295.45 2299.29,1274.45 2298,1253.5C 2294.44,1244.64 2287.94,1239.47 2278.5,1238C 2259.17,1237.33 2239.83,1237.33 2220.5,1238C 2208.56,1240.28 2201.72,1247.44 2200,1259.5C 2199.06,1279.54 2199.39,1299.54 2201,1319.5C 2204.45,1329.28 2211.28,1335.12 2221.5,1337C 2240.83,1337.33 2260.17,1337.67 2279.5,1338C 2288.09,1339.8 2295.76,1343.46 2302.5,1349C 2312.33,1358.83 2322.17,1368.67 2332,1378.5C 2336.67,1384.84 2340,1391.84 2342,1399.5C 2343.28,1433.81 2343.94,1468.14 2344,1502.5C 2346.83,1510.67 2352.33,1516.17 2360.5,1519C 2395.17,1519.67 2429.83,1519.67 2464.5,1519C 2468.79,1517.85 2472.46,1515.69 2475.5,1512.5C 2476.68,1545.17 2476.51,1577.84 2475,1610.5C 2472.91,1670.48 2452.24,1722.81 2413,1767.5C 2373.98,1806.25 2326.81,1827.58 2271.5,1831.5 Z M 2218.5,1352.5 C 2259.4,1348.34 2286.9,1365.34 2301,1403.5C 2306.15,1419.42 2308.82,1435.75 2309,1452.5C 2311.24,1508.52 2310.91,1564.52 2308,1620.5C 2306.79,1638.46 2302.12,1655.46 2294,1671.5C 2282.53,1691.83 2265.03,1703 2241.5,1705C 2201.89,1710.29 2174.39,1694.79 2159,1658.5C 2153.3,1642.33 2150.3,1625.66 2150,1608.5C 2149.33,1555.5 2149.33,1502.5 2150,1449.5C 2150.29,1429.7 2154.29,1410.7 2162,1392.5C 2171,1401.5 2180,1410.5 2189,1419.5C 2194.55,1427.28 2197.89,1435.94 2199,1445.5C 2199.33,1464.17 2199.67,1482.83 2200,1501.5C 2203.5,1512.67 2211,1519.17 2222.5,1521C 2241.17,1521.67 2259.83,1521.67 2278.5,1521C 2288.63,1518.88 2295.79,1513.04 2300,1503.5C 2301.61,1483.21 2301.94,1462.88 2301,1442.5C 2299.17,1431 2292.67,1423.5 2281.5,1420C 2262.5,1419.67 2243.5,1419.33 2224.5,1419C 2215.83,1417.78 2207.83,1414.78 2200.5,1410C 2190.17,1399.67 2179.83,1389.33 2169.5,1379C 2182.18,1363.33 2198.51,1354.49 2218.5,1352.5 Z"/></g>
<g><path style="opacity:0.995" fill="#fdfdfd" d="M 1104.5,1228.5 C 1142.07,1227.78 1179.07,1231.95 1215.5,1241C 1282.72,1260.56 1329.22,1302.73 1355,1367.5C 1374.05,1427.62 1367.72,1484.95 1336,1539.5C 1322.99,1561.52 1308.99,1582.85 1294,1603.5C 1243.61,1671.55 1193.61,1739.89 1144,1808.5C 1138.37,1816.56 1130.87,1822.06 1121.5,1825C 1076.83,1825.67 1032.17,1825.67 987.5,1825C 976.681,1819.59 973.181,1811.09 977,1799.5C 1014.97,1746.69 1053.14,1694.03 1091.5,1641.5C 1088.66,1637.16 1084.83,1636.16 1080,1638.5C 1009.96,1634.32 952.964,1605.32 909,1551.5C 869.597,1494.91 861.264,1433.91 884,1368.5C 910.163,1307.31 954.663,1265.47 1017.5,1243C 1046,1234.29 1075,1229.46 1104.5,1228.5 Z M 1112.5,1355.5 C 1143.38,1353.86 1168.54,1364.86 1188,1388.5C 1201.94,1411.1 1205.94,1435.43 1200,1461.5C 1189.95,1497.88 1166.12,1518.04 1128.5,1522C 1092.41,1526.03 1064.25,1513.2 1044,1483.5C 1033.24,1461.49 1030.57,1438.49 1036,1414.5C 1044.47,1386.03 1062.97,1367.53 1091.5,1359C 1098.61,1357.59 1105.61,1356.43 1112.5,1355.5 Z"/></g>
<g><path style="opacity:0.993" fill="#fdfdfd" d="M 1713.5,1831.5 C 1707.63,1831.6 1701.96,1832.26 1696.5,1833.5C 1639.67,1838.55 1584.67,1830.38 1531.5,1809C 1493.02,1792.51 1462.52,1766.68 1440,1731.5C 1426.11,1706.61 1420.11,1679.95 1422,1651.5C 1424.58,1644.13 1429.75,1639.96 1437.5,1639C 1480.86,1638.04 1524.2,1638.37 1567.5,1640C 1573.04,1641.68 1577.87,1644.52 1582,1648.5C 1587.47,1661.45 1594.47,1673.45 1603,1684.5C 1612.75,1694.8 1624.59,1701.63 1638.5,1705C 1668.37,1712.65 1696.04,1707.98 1721.5,1691C 1740.64,1673.7 1749.97,1652.04 1749.5,1626C 1748.84,1586.68 1729.84,1561.02 1692.5,1549C 1658.31,1540.8 1627.97,1548.13 1601.5,1571C 1597.19,1573.66 1592.52,1575.33 1587.5,1576C 1547.83,1576.67 1508.17,1576.67 1468.5,1576C 1456.94,1575.27 1450.94,1569.1 1450.5,1557.5C 1460.79,1456.08 1471.62,1354.75 1483,1253.5C 1486.87,1244.29 1493.7,1238.79 1503.5,1237C 1621.5,1236.33 1739.5,1236.33 1857.5,1237C 1864.57,1239.07 1869.41,1243.57 1872,1250.5C 1873.61,1281.47 1873.95,1312.47 1873,1343.5C 1871.99,1351.83 1867.83,1358 1860.5,1362C 1765.54,1363.32 1670.54,1363.99 1575.5,1364C 1590.76,1369.6 1599.92,1380.43 1603,1396.5C 1603.39,1399.19 1603.89,1401.85 1604.5,1404.5C 1601.64,1424.47 1599.97,1444.47 1599.5,1464.5C 1621.11,1449.54 1645.11,1441.04 1671.5,1439C 1730.66,1430.96 1785,1443.29 1834.5,1476C 1896.36,1524.6 1921.52,1588.1 1910,1666.5C 1897.91,1728.25 1864.08,1773.75 1808.5,1803C 1778.56,1818.24 1746.89,1827.74 1713.5,1831.5 Z"/></g>
<g><path style="opacity:0.986" fill="#fdfdfd" d="M 2502.5,1236.5 C 2536.17,1236.33 2569.83,1236.5 2603.5,1237C 2613.14,1239.31 2619.64,1245.14 2623,1254.5C 2623.67,1289.5 2623.67,1324.5 2623,1359.5C 2619.1,1370.06 2611.6,1376.23 2600.5,1378C 2568.83,1378.67 2537.17,1378.67 2505.5,1378C 2494,1376.17 2486.5,1369.67 2483,1358.5C 2482.33,1324.17 2482.33,1289.83 2483,1255.5C 2486.75,1246.25 2493.25,1239.92 2502.5,1236.5 Z"/></g>
<g><path style="opacity:0.994" fill="#fdfdfd" d="M 652.5,1237.5 C 694.168,1237.33 735.835,1237.5 777.5,1238C 785.188,1239.69 790.354,1244.19 793,1251.5C 793.667,1438.17 793.667,1624.83 793,1811.5C 790.406,1818.43 785.573,1822.93 778.5,1825C 735.5,1825.67 692.5,1825.67 649.5,1825C 643.417,1822.59 638.917,1818.42 636,1812.5C 634.674,1688.88 634.007,1565.21 634,1441.5C 629.731,1431.45 622.231,1427.95 611.5,1431C 580.628,1453.27 550.295,1476.27 520.5,1500C 509.1,1504.87 499.6,1502.37 492,1492.5C 475.333,1471.17 458.667,1449.83 442,1428.5C 436.811,1421.7 435.144,1414.04 437,1405.5C 438.343,1401.49 440.509,1397.99 443.5,1395C 509.119,1345.05 574.452,1294.72 639.5,1244C 643.572,1241.15 647.906,1238.99 652.5,1237.5 Z"/></g>
<g><path style="opacity:0.434" fill="#f7f7f5" d="M 2187.5,1831.5 C 2196.02,1831.66 2204.36,1832.32 2212.5,1833.5C 2203.95,1833.71 2195.62,1833.04 2187.5,1831.5 Z"/></g>
<g><path style="opacity:0.394" fill="#f7f7f5" d="M 2271.5,1831.5 C 2263.38,1833.04 2255.05,1833.71 2246.5,1833.5C 2254.64,1832.32 2262.98,1831.66 2271.5,1831.5 Z"/></g>
<g><path style="opacity:0.442" fill="#f7f7f6" d="M 1713.5,1831.5 C 1708.07,1833.01 1702.4,1833.68 1696.5,1833.5C 1701.96,1832.26 1707.63,1831.6 1713.5,1831.5 Z"/></g>
<g><path style="opacity:0.933" fill="#fbfcfb" d="M 2316.5,1928.5 C 2328.26,1926.94 2335.26,1931.94 2337.5,1943.5C 2335.85,1955.16 2329.18,1960.32 2317.5,1959C 2306.7,1954.23 2303.53,1946.4 2308,1935.5C 2310.44,1932.55 2313.27,1930.21 2316.5,1928.5 Z"/></g>
<g><path style="opacity:0.958" fill="#fbfcfb" d="M 1398.5,1933.5 C 1405.84,1933.33 1413.17,1933.5 1420.5,1934C 1427.42,1935.25 1431.25,1939.42 1432,1946.5C 1432.33,1957.83 1432.67,1969.17 1433,1980.5C 1450.04,1968.75 1467.54,1967.92 1485.5,1978C 1492.47,1983.63 1496.97,1990.8 1499,1999.5C 1499.5,2023.5 1499.67,2047.5 1499.5,2071.5C 1491.5,2071.5 1483.5,2071.5 1475.5,2071.5C 1475.95,2048.12 1475.45,2024.79 1474,2001.5C 1470.54,1993.35 1464.37,1989.68 1455.5,1990.5C 1443.98,1990.19 1436.48,1995.52 1433,2006.5C 1432.5,2028.16 1432.33,2049.83 1432.5,2071.5C 1424.17,2071.5 1415.83,2071.5 1407.5,2071.5C 1407.67,2031.83 1407.5,1992.17 1407,1952.5C 1407.14,1947.1 1404.64,1943.76 1399.5,1942.5C 1398.52,1939.57 1398.18,1936.57 1398.5,1933.5 Z"/></g>
<g><path style="opacity:0.935" fill="#fbfcfb" d="M 2230.5,1948.5 C 2239.91,1948.08 2249.25,1948.58 2258.5,1950C 2263.72,1954.17 2266.05,1959.67 2265.5,1966.5C 2265.46,1968.43 2265.13,1970.26 2264.5,1972C 2272.16,1972.5 2279.83,1972.67 2287.5,1972.5C 2287.5,1978.17 2287.5,1983.83 2287.5,1989.5C 2279.83,1989.33 2272.16,1989.5 2264.5,1990C 2265.33,2008.43 2265.83,2026.93 2266,2045.5C 2266.83,2049 2269,2051.17 2272.5,2052C 2278.86,2052.65 2285.2,2052.49 2291.5,2051.5C 2292.55,2057.33 2294.22,2062.99 2296.5,2068.5C 2281.08,2074.49 2266.08,2073.66 2251.5,2066C 2245.85,2061.87 2242.35,2056.37 2241,2049.5C 2239.25,2029.63 2239.08,2009.79 2240.5,1990C 2234.84,1989.5 2229.18,1989.33 2223.5,1989.5C 2223.33,1985.49 2223.5,1981.49 2224,1977.5C 2229.05,1974.48 2234.55,1972.65 2240.5,1972C 2239.81,1967.84 2238.98,1963.67 2238,1959.5C 2235.76,1957.8 2233.26,1956.8 2230.5,1956.5C 2230.5,1953.83 2230.5,1951.17 2230.5,1948.5 Z"/></g>
<g><path style="opacity:0.946" fill="#fbfcfb" d="M 953.5,1970.5 C 965.111,1970.57 975.777,1973.74 985.5,1980C 991.902,1986.86 995.402,1995.03 996,2004.5C 996.333,2023.5 996.667,2042.5 997,2061.5C 999.286,2064.36 1000.12,2067.7 999.5,2071.5C 993.158,2071.67 986.825,2071.5 980.5,2071C 977.537,2068.13 975.704,2064.63 975,2060.5C 959.8,2073.47 942.967,2075.97 924.5,2068C 909.177,2053.73 908.51,2038.73 922.5,2023C 927.942,2018.95 933.942,2015.95 940.5,2014C 950.856,2012.41 961.189,2010.75 971.5,2009C 972.061,2000.29 968.395,1994.29 960.5,1991C 946.997,1988.38 934.33,1990.55 922.5,1997.5C 921.914,1997.29 921.414,1996.96 921,1996.5C 919.419,1991.68 917.586,1987.01 915.5,1982.5C 921.464,1978.02 928.131,1974.85 935.5,1973C 941.647,1972.16 947.647,1971.33 953.5,1970.5 Z M 960.5,2025.5 C 964.182,2025.33 967.848,2025.5 971.5,2026C 970.394,2032.5 970.227,2039 971,2045.5C 961.988,2054.3 951.821,2056.13 940.5,2051C 934.235,2040.43 936.902,2032.77 948.5,2028C 952.637,2027.16 956.637,2026.33 960.5,2025.5 Z"/></g>
<g><path style="opacity:0.946" fill="#fbfcfb" d="M 1071.5,1970.5 C 1096.31,1970.63 1109.81,1982.96 1112,2007.5C 1112.5,2028.83 1112.67,2050.16 1112.5,2071.5C 1104.17,2071.5 1095.83,2071.5 1087.5,2071.5C 1087.67,2049.5 1087.5,2027.5 1087,2005.5C 1083.03,1992.26 1074.2,1987.42 1060.5,1991C 1052.23,1993.6 1047.07,1999.1 1045,2007.5C 1044.5,2028.83 1044.33,2050.16 1044.5,2071.5C 1036.17,2071.5 1027.83,2071.5 1019.5,2071.5C 1019.67,2044.16 1019.5,2016.83 1019,1989.5C 1018.69,1984.03 1015.86,1981.03 1010.5,1980.5C 1010.5,1977.5 1010.5,1974.5 1010.5,1971.5C 1018.89,1971.21 1027.22,1971.71 1035.5,1973C 1039.59,1975.01 1042.43,1978.17 1044,1982.5C 1051.77,1975.08 1060.94,1971.08 1071.5,1970.5 Z"/></g>
<g><path style="opacity:0.943" fill="#fbfcfb" d="M 1561.5,1970.5 C 1576.89,1969.9 1589.72,1975.24 1600,1986.5C 1606,1999.53 1608,2013.19 1606,2027.5C 1605.25,2028.13 1604.42,2028.63 1603.5,2029C 1583.84,2029.5 1564.17,2029.67 1544.5,2029.5C 1542.01,2044.66 1548.34,2052.66 1563.5,2053.5C 1573.46,2053.58 1581.62,2049.91 1588,2042.5C 1592.9,2045.7 1597.74,2049.04 1602.5,2052.5C 1596.03,2064.25 1586.03,2070.75 1572.5,2072C 1562.38,2072.99 1552.38,2072.33 1542.5,2070C 1529.94,2065.44 1522.44,2056.61 1520,2043.5C 1519.33,2029.5 1519.33,2015.5 1520,2001.5C 1522.48,1986.68 1530.98,1977.18 1545.5,1973C 1550.97,1972.13 1556.31,1971.3 1561.5,1970.5 Z M 1556.5,1990.5 C 1574.22,1987.49 1582.56,1994.83 1581.5,2012.5C 1569.17,2012.5 1556.83,2012.5 1544.5,2012.5C 1542.86,2001.77 1546.86,1994.44 1556.5,1990.5 Z"/></g>
<g><path style="opacity:0.946" fill="#fbfcfb" d="M 1677.5,1970.5 C 1680.75,1971.25 1684.08,1971.75 1687.5,1972C 1688.52,1972.52 1689.18,1973.35 1689.5,1974.5C 1688.13,1980.45 1687.13,1986.45 1686.5,1992.5C 1679.12,1991 1671.79,1991.17 1664.5,1993C 1655.88,1997.07 1651.38,2003.9 1651,2013.5C 1650.5,2032.83 1650.33,2052.16 1650.5,2071.5C 1642.17,2071.5 1633.83,2071.5 1625.5,2071.5C 1625.67,2043.16 1625.5,2014.83 1625,1986.5C 1623.49,1982.66 1620.66,1980.66 1616.5,1980.5C 1616.5,1977.5 1616.5,1974.5 1616.5,1971.5C 1624.55,1971.23 1632.55,1971.73 1640.5,1973C 1645.66,1975.63 1648.66,1979.46 1649.5,1984.5C 1656.75,1975.54 1666.09,1970.87 1677.5,1970.5 Z"/></g>
<g><path style="opacity:0.943" fill="#fbfcfb" d="M 1740.5,1970.5 C 1753.47,1970.43 1764.97,1974.43 1775,1982.5C 1778.94,1986.79 1781.61,1991.79 1783,1997.5C 1784.53,2007.45 1784.86,2017.45 1784,2027.5C 1783.5,2028 1783,2028.5 1782.5,2029C 1762.5,2029.5 1742.5,2029.67 1722.5,2029.5C 1720.28,2045.12 1726.95,2053.12 1742.5,2053.5C 1752.27,2053.62 1760.27,2049.95 1766.5,2042.5C 1771.61,2045.45 1776.28,2048.95 1780.5,2053C 1771.23,2067.39 1757.89,2073.89 1740.5,2072.5C 1721.76,2074.39 1708.26,2067.05 1700,2050.5C 1699.08,2047.9 1698.41,2045.23 1698,2042.5C 1697.33,2029.17 1697.33,2015.83 1698,2002.5C 1699.65,1988.36 1707.15,1978.86 1720.5,1974C 1727.21,1972.29 1733.88,1971.12 1740.5,1970.5 Z M 1734.5,1990.5 C 1752.34,1987.35 1760.67,1994.68 1759.5,2012.5C 1747.17,2012.5 1734.83,2012.5 1722.5,2012.5C 1720.82,2001.85 1724.82,1994.51 1734.5,1990.5 Z"/></g>
<g><path style="opacity:0.949" fill="#fbfcfb" d="M 1940.5,1970.5 C 1951.68,1970.38 1962.01,1973.21 1971.5,1979C 1977.94,1984.77 1981.78,1991.94 1983,2000.5C 1983.33,2019.5 1983.67,2038.5 1984,2057.5C 1986.41,2061.82 1987.58,2066.48 1987.5,2071.5C 1981.16,2071.67 1974.82,2071.5 1968.5,2071C 1967.58,2070.63 1966.75,2070.13 1966,2069.5C 1964.47,2066.58 1963.14,2063.58 1962,2060.5C 1951.19,2070.75 1938.36,2074.58 1923.5,2072C 1906.08,2067.57 1898.58,2056.4 1901,2038.5C 1905.44,2025.06 1914.61,2016.89 1928.5,2014C 1938.46,2012.17 1948.46,2010.67 1958.5,2009.5C 1959.72,2000.77 1956.39,1994.6 1948.5,1991C 1934.69,1988.28 1921.69,1990.45 1909.5,1997.5C 1907.11,1992.67 1905.11,1987.67 1903.5,1982.5C 1908.07,1978.38 1913.4,1975.55 1919.5,1974C 1926.56,1972.34 1933.56,1971.17 1940.5,1970.5 Z M 1947.5,2025.5 C 1951.17,2025.5 1954.83,2025.5 1958.5,2025.5C 1958.67,2032.17 1958.5,2038.84 1958,2045.5C 1950.61,2053.22 1941.77,2055.72 1931.5,2053C 1925.09,2049.68 1922.93,2044.51 1925,2037.5C 1930.46,2029.63 1937.96,2025.63 1947.5,2025.5 Z"/></g>
<g><path style="opacity:0.942" fill="#fbfcfb" d="M 2059.5,1970.5 C 2080.77,1970.7 2093.94,1981.03 2099,2001.5C 2099.5,2024.83 2099.67,2048.16 2099.5,2071.5C 2091.17,2071.5 2082.83,2071.5 2074.5,2071.5C 2074.67,2048.83 2074.5,2026.16 2074,2003.5C 2071.02,1994.08 2064.52,1989.75 2054.5,1990.5C 2043.89,1990.62 2036.72,1995.62 2033,2005.5C 2031.56,2027.46 2031.06,2049.46 2031.5,2071.5C 2023.17,2071.5 2014.83,2071.5 2006.5,2071.5C 2006.67,2043.16 2006.5,2014.83 2006,1986.5C 2004.39,1982.72 2001.56,1980.72 1997.5,1980.5C 1997.5,1977.5 1997.5,1974.5 1997.5,1971.5C 2005.89,1971.17 2014.23,1971.67 2022.5,1973C 2027.1,1974.6 2029.93,1977.76 2031,1982.5C 2039.23,1975.26 2048.73,1971.26 2059.5,1970.5 Z"/></g>
<g><path style="opacity:0.956" fill="#fbfcfb" d="M 2411.5,1970.5 C 2425.91,1970.46 2437.41,1976.12 2446,1987.5C 2458.33,1972.54 2473.83,1967.71 2492.5,1973C 2507.53,1978.54 2515.7,1989.37 2517,2005.5C 2517.5,2027.5 2517.67,2049.5 2517.5,2071.5C 2509.17,2071.5 2500.83,2071.5 2492.5,2071.5C 2492.93,2048.13 2492.43,2024.8 2491,2001.5C 2487.92,1993.6 2482.08,1989.93 2473.5,1990.5C 2462.51,1990.65 2455.35,1995.98 2452,2006.5C 2450.57,2028.13 2450.07,2049.79 2450.5,2071.5C 2442.5,2071.5 2434.5,2071.5 2426.5,2071.5C 2426.67,2049.5 2426.5,2027.5 2426,2005.5C 2424.46,1994.8 2418.3,1989.8 2407.5,1990.5C 2396.11,1990.72 2388.94,1996.38 2386,2007.5C 2385.5,2028.83 2385.33,2050.16 2385.5,2071.5C 2377.17,2071.5 2368.83,2071.5 2360.5,2071.5C 2360.67,2044.16 2360.5,2016.83 2360,1989.5C 2359.83,1984.5 2357.33,1981.5 2352.5,1980.5C 2351.52,1977.57 2351.18,1974.57 2351.5,1971.5C 2359.89,1971.21 2368.22,1971.71 2376.5,1973C 2380.33,1974.83 2383.17,1977.67 2385,1981.5C 2392.66,1974.79 2401.49,1971.12 2411.5,1970.5 Z"/></g>
<g><path style="opacity:0.944" fill="#fbfcfb" d="M 2579.5,1970.5 C 2592.47,1970.43 2603.97,1974.43 2614,1982.5C 2617.94,1986.79 2620.61,1991.79 2622,1997.5C 2623.53,2007.45 2623.86,2017.45 2623,2027.5C 2622.5,2028 2622,2028.5 2621.5,2029C 2601.5,2029.5 2581.5,2029.67 2561.5,2029.5C 2559.29,2045.14 2565.96,2053.14 2581.5,2053.5C 2591.27,2053.62 2599.27,2049.95 2605.5,2042.5C 2610.61,2045.45 2615.28,2048.95 2619.5,2053C 2610.23,2067.39 2596.89,2073.89 2579.5,2072.5C 2560.76,2074.39 2547.26,2067.05 2539,2050.5C 2538.08,2047.9 2537.41,2045.23 2537,2042.5C 2536.33,2029.17 2536.33,2015.83 2537,2002.5C 2539.13,1988.72 2546.63,1979.22 2559.5,1974C 2566.21,1972.29 2572.88,1971.12 2579.5,1970.5 Z M 2573.5,1990.5 C 2591.34,1987.35 2599.67,1994.68 2598.5,2012.5C 2586.17,2012.5 2573.83,2012.5 2561.5,2012.5C 2559.83,2001.83 2563.83,1994.49 2573.5,1990.5 Z"/></g>
<g><path style="opacity:0.949" fill="#fbfcfb" d="M 1120.5,1971.5 C 1128.88,1971.26 1137.21,1971.76 1145.5,1973C 1148.3,1974.79 1150.8,1976.96 1153,1979.5C 1162.39,2000.34 1171.39,2021.34 1180,2042.5C 1188.45,2020.27 1197.45,1998.27 1207,1976.5C 1208.64,1974.19 1210.8,1972.69 1213.5,1972C 1226.17,1971.33 1238.83,1971.33 1251.5,1972C 1259.54,1972.27 1265.04,1976.1 1268,1983.5C 1273.8,2001.7 1279.13,2020.03 1284,2038.5C 1291.06,2015.98 1298.89,1993.81 1307.5,1972C 1313.75,1971.19 1319.92,1971.36 1326,1972.5C 1333.47,1994.42 1340.64,2016.42 1347.5,2038.5C 1353.57,2016.96 1360.24,1995.63 1367.5,1974.5C 1368.91,1973.19 1370.58,1972.36 1372.5,1972C 1379.52,1971.17 1386.52,1971.34 1393.5,1972.5C 1382.7,2005.4 1372.36,2038.4 1362.5,2071.5C 1353.25,2071.82 1344.08,2071.48 1335,2070.5C 1328.05,2049.99 1321.72,2029.32 1316,2008.5C 1309.93,2029.55 1303.76,2050.55 1297.5,2071.5C 1288.14,2071.83 1278.81,2071.5 1269.5,2070.5C 1261.1,2043.47 1252.6,2016.47 1244,1989.5C 1242.27,1984.94 1239.11,1981.94 1234.5,1980.5C 1233.69,1978.23 1233.19,1975.9 1233,1973.5C 1218.33,2007.5 1203.67,2041.5 1189,2075.5C 1176.98,2101.76 1157.15,2111.09 1129.5,2103.5C 1130.92,2097.4 1132.58,2091.4 1134.5,2085.5C 1149.8,2090.36 1160.46,2085.53 1166.5,2071C 1154.19,2042.42 1141.69,2013.92 1129,1985.5C 1126.97,1982.4 1124.14,1980.74 1120.5,1980.5C 1120.5,1977.5 1120.5,1974.5 1120.5,1971.5 Z"/></g>
<g><path style="opacity:0.945" fill="#fbfcfb" d="M 2108.5,1971.5 C 2116.55,1971.23 2124.55,1971.73 2132.5,1973C 2135.1,1973.88 2137.27,1975.38 2139,1977.5C 2149.3,1998.72 2158.63,2020.39 2167,2042.5C 2176.06,2020.05 2185.39,1997.72 2195,1975.5C 2196.32,1973.51 2198.15,1972.35 2200.5,1972C 2207.52,1971.17 2214.52,1971.34 2221.5,1972.5C 2206.39,2006.38 2191.56,2040.38 2177,2074.5C 2165.57,2100.3 2146.07,2110.3 2118.5,2104.5C 2118.17,2103.83 2117.83,2103.17 2117.5,2102.5C 2118.98,2096.9 2119.98,2091.24 2120.5,2085.5C 2136.39,2090.71 2147.72,2085.88 2154.5,2071C 2141.87,2042.91 2129.37,2014.74 2117,1986.5C 2114.9,1982.87 2111.74,1980.87 2107.5,1980.5C 2107.26,1977.39 2107.6,1974.39 2108.5,1971.5 Z"/></g>
<g><path style="opacity:0.941" fill="#fbfcfb" d="M 2301.5,1971.5 C 2309.89,1971.17 2318.23,1971.67 2326.5,1973C 2330.67,1974.5 2333.5,1977.33 2335,1981.5C 2335.5,2011.5 2335.67,2041.5 2335.5,2071.5C 2327.17,2071.5 2318.83,2071.5 2310.5,2071.5C 2310.67,2043.5 2310.5,2015.5 2310,1987.5C 2308.82,1983.15 2305.99,1980.82 2301.5,1980.5C 2301.5,1977.5 2301.5,1974.5 2301.5,1971.5 Z"/></g>
<g><path style="opacity:0.893" fill="#fbfcfb" d="M 1810.5,2053.5 C 1816.5,2053.5 1822.5,2053.5 1828.5,2053.5C 1826.58,2070.62 1823.91,2087.62 1820.5,2104.5C 1816.57,2105.43 1812.57,2105.77 1808.5,2105.5C 1809.14,2088.17 1809.81,2070.83 1810.5,2053.5 Z"/></g>
</svg>
